<?xml version="1.0" encoding="UTF-8"?>
<svg xmlns="http://www.w3.org/2000/svg" xmlns:xlink="http://www.w3.org/1999/xlink" width="295.989488" height="313.709163" viewBox="0 0 295.989488 313.709163">
<path fill-rule="nonzero" fill="rgb(27.764706%, 41.176471%, 0%)" fill-opacity="1" stroke-width="0.5" stroke-linecap="butt" stroke-linejoin="round" stroke="rgb(0%, 0%, 0%)" stroke-opacity="1" stroke-miterlimit="10" d="M 247.371094 148.664062 L 207.621094 178.449219 L 207.621094 112.179688 L 247.371094 82.394531 Z M 247.371094 148.664062 "/>
<path fill-rule="nonzero" fill="rgb(37.019608%, 54.901961%, 0%)" fill-opacity="1" stroke-width="0.5" stroke-linecap="butt" stroke-linejoin="round" stroke="rgb(0%, 0%, 0%)" stroke-opacity="1" stroke-miterlimit="10" d="M 247.371094 82.394531 L 207.621094 112.179688 L 144.019531 93.566406 L 183.769531 63.78125 Z M 247.371094 82.394531 "/>
<path fill-rule="nonzero" fill="rgb(46.27451%, 68.627451%, 0%)" fill-opacity="1" stroke-width="0.5" stroke-linecap="butt" stroke-linejoin="round" stroke="rgb(0%, 0%, 0%)" stroke-opacity="1" stroke-miterlimit="10" d="M 207.621094 178.449219 L 144.019531 159.832031 L 144.019531 93.566406 L 207.621094 112.179688 Z M 207.621094 178.449219 "/>
<path fill-rule="nonzero" fill="rgb(25.647059%, 39.058824%, 0%)" fill-opacity="1" stroke-width="0.5" stroke-linecap="butt" stroke-linejoin="round" stroke="rgb(0%, 0%, 0%)" stroke-opacity="1" stroke-miterlimit="10" d="M 199.667969 263.925781 L 159.917969 293.710938 L 159.917969 227.441406 L 199.667969 197.65625 Z M 199.667969 263.925781 "/>
<path fill-rule="nonzero" fill="rgb(34.196078%, 52.078431%, 0%)" fill-opacity="1" stroke-width="0.5" stroke-linecap="butt" stroke-linejoin="round" stroke="rgb(0%, 0%, 0%)" stroke-opacity="1" stroke-miterlimit="10" d="M 199.667969 197.65625 L 159.917969 227.441406 L 96.320312 208.828125 L 136.070312 179.042969 Z M 199.667969 197.65625 "/>
<path fill-rule="nonzero" fill="rgb(42.745098%, 65.098039%, 0%)" fill-opacity="1" stroke-width="0.5" stroke-linecap="butt" stroke-linejoin="round" stroke="rgb(0%, 0%, 0%)" stroke-opacity="1" stroke-miterlimit="10" d="M 159.917969 293.710938 L 96.320312 275.09375 L 96.320312 208.828125 L 159.917969 227.441406 Z M 159.917969 293.710938 "/>
<path fill-rule="nonzero" fill="rgb(27.764706%, 41.176471%, 0%)" fill-opacity="1" stroke-width="0.5" stroke-linecap="butt" stroke-linejoin="round" stroke="rgb(0%, 0%, 0%)" stroke-opacity="1" stroke-miterlimit="10" d="M 123.351562 162.066406 L 83.601562 191.851562 L 83.601562 125.582031 L 123.351562 95.796875 Z M 123.351562 162.066406 "/>
<path fill-rule="nonzero" fill="rgb(37.019608%, 54.901961%, 0%)" fill-opacity="1" stroke-width="0.5" stroke-linecap="butt" stroke-linejoin="round" stroke="rgb(0%, 0%, 0%)" stroke-opacity="1" stroke-miterlimit="10" d="M 123.351562 95.796875 L 83.601562 125.582031 L 20 106.96875 L 59.75 77.183594 Z M 123.351562 95.796875 "/>
<path fill-rule="nonzero" fill="rgb(46.27451%, 68.627451%, 0%)" fill-opacity="1" stroke-width="0.5" stroke-linecap="butt" stroke-linejoin="round" stroke="rgb(0%, 0%, 0%)" stroke-opacity="1" stroke-miterlimit="10" d="M 83.601562 191.851562 L 20 173.234375 L 20 106.96875 L 83.601562 125.582031 Z M 83.601562 191.851562 "/>
<path fill-rule="nonzero" fill="rgb(53.882353%, 31.764706%, 11.058824%)" fill-opacity="1" stroke-width="0.5" stroke-linecap="butt" stroke-linejoin="round" stroke="rgb(0%, 0%, 0%)" stroke-opacity="1" stroke-miterlimit="10" d="M 199.667969 184.402344 L 159.917969 214.1875 L 159.917969 147.917969 L 199.667969 118.136719 Z M 199.667969 184.402344 "/>
<path fill-rule="nonzero" fill="rgb(71.843137%, 42.352941%, 14.745098%)" fill-opacity="1" stroke-width="0.5" stroke-linecap="butt" stroke-linejoin="round" stroke="rgb(0%, 0%, 0%)" stroke-opacity="1" stroke-miterlimit="10" d="M 199.667969 118.136719 L 159.917969 147.917969 L 96.320312 129.304688 L 136.070312 99.523438 Z M 199.667969 118.136719 "/>
<path fill-rule="nonzero" fill="rgb(89.803922%, 52.941176%, 18.431373%)" fill-opacity="1" stroke-width="0.5" stroke-linecap="butt" stroke-linejoin="round" stroke="rgb(0%, 0%, 0%)" stroke-opacity="1" stroke-miterlimit="10" d="M 159.917969 214.1875 L 96.320312 195.574219 L 96.320312 129.304688 L 159.917969 147.917969 Z M 159.917969 214.1875 "/>
<path fill-rule="nonzero" fill="rgb(27.764706%, 41.176471%, 0%)" fill-opacity="1" stroke-width="0.5" stroke-linecap="butt" stroke-linejoin="round" stroke="rgb(0%, 0%, 0%)" stroke-opacity="1" stroke-miterlimit="10" d="M 275.988281 206.742188 L 236.238281 236.523438 L 236.238281 170.257812 L 275.988281 140.472656 Z M 275.988281 206.742188 "/>
<path fill-rule="nonzero" fill="rgb(37.019608%, 54.901961%, 0%)" fill-opacity="1" stroke-width="0.5" stroke-linecap="butt" stroke-linejoin="round" stroke="rgb(0%, 0%, 0%)" stroke-opacity="1" stroke-miterlimit="10" d="M 275.988281 140.472656 L 236.238281 170.257812 L 172.640625 151.640625 L 212.390625 121.859375 Z M 275.988281 140.472656 "/>
<path fill-rule="nonzero" fill="rgb(46.27451%, 68.627451%, 0%)" fill-opacity="1" stroke-width="0.5" stroke-linecap="butt" stroke-linejoin="round" stroke="rgb(0%, 0%, 0%)" stroke-opacity="1" stroke-miterlimit="10" d="M 236.238281 236.523438 L 172.640625 217.910156 L 172.640625 151.640625 L 236.238281 170.257812 Z M 236.238281 236.523438 "/>
<path fill-rule="nonzero" fill="rgb(29.882353%, 43.294118%, 0%)" fill-opacity="1" stroke-width="0.5" stroke-linecap="butt" stroke-linejoin="round" stroke="rgb(0%, 0%, 0%)" stroke-opacity="1" stroke-miterlimit="10" d="M 199.667969 104.882812 L 159.917969 134.664062 L 159.917969 68.398438 L 199.667969 38.613281 Z M 199.667969 104.882812 "/>
<path fill-rule="nonzero" fill="rgb(39.843137%, 57.72549%, 0%)" fill-opacity="1" stroke-width="0.5" stroke-linecap="butt" stroke-linejoin="round" stroke="rgb(0%, 0%, 0%)" stroke-opacity="1" stroke-miterlimit="10" d="M 199.667969 38.613281 L 159.917969 68.398438 L 96.320312 49.785156 L 136.070312 20 Z M 199.667969 38.613281 "/>
<path fill-rule="nonzero" fill="rgb(49.803922%, 72.156863%, 0%)" fill-opacity="1" stroke-width="0.5" stroke-linecap="butt" stroke-linejoin="round" stroke="rgb(0%, 0%, 0%)" stroke-opacity="1" stroke-miterlimit="10" d="M 159.917969 134.664062 L 96.320312 116.050781 L 96.320312 49.785156 L 159.917969 68.398438 Z M 159.917969 134.664062 "/>
<path fill-rule="nonzero" fill="rgb(27.764706%, 41.176471%, 0%)" fill-opacity="1" stroke-width="0.5" stroke-linecap="butt" stroke-linejoin="round" stroke="rgb(0%, 0%, 0%)" stroke-opacity="1" stroke-miterlimit="10" d="M 151.96875 220.144531 L 112.21875 249.925781 L 112.21875 183.660156 L 151.96875 153.875 Z M 151.96875 220.144531 "/>
<path fill-rule="nonzero" fill="rgb(37.019608%, 54.901961%, 0%)" fill-opacity="1" stroke-width="0.5" stroke-linecap="butt" stroke-linejoin="round" stroke="rgb(0%, 0%, 0%)" stroke-opacity="1" stroke-miterlimit="10" d="M 151.96875 153.875 L 112.21875 183.660156 L 48.621094 165.046875 L 88.371094 135.261719 Z M 151.96875 153.875 "/>
<path fill-rule="nonzero" fill="rgb(46.27451%, 68.627451%, 0%)" fill-opacity="1" stroke-width="0.5" stroke-linecap="butt" stroke-linejoin="round" stroke="rgb(0%, 0%, 0%)" stroke-opacity="1" stroke-miterlimit="10" d="M 112.21875 249.925781 L 48.621094 231.3125 L 48.621094 165.046875 L 112.21875 183.660156 Z M 112.21875 249.925781 "/>
</svg>
