<?xml version="1.0" encoding="UTF-8"?>
<svg xmlns="http://www.w3.org/2000/svg" xmlns:xlink="http://www.w3.org/1999/xlink" width="448.629183" height="472.752355" viewBox="0 0 448.629183 472.752355">
<path fill-rule="nonzero" fill="rgb(0%, 44.941176%, 39.764706%)" fill-opacity="1" stroke-width="0.5" stroke-linecap="butt" stroke-linejoin="round" stroke="rgb(0%, 0%, 0%)" stroke-opacity="1" stroke-miterlimit="10" d="M 371.390625 192.445312 L 331.640625 222.230469 L 331.640625 155.960938 L 371.390625 126.175781 Z M 371.390625 192.445312 "/>
<path fill-rule="nonzero" fill="rgb(0%, 59.921569%, 53.019608%)" fill-opacity="1" stroke-width="0.5" stroke-linecap="butt" stroke-linejoin="round" stroke="rgb(0%, 0%, 0%)" stroke-opacity="1" stroke-miterlimit="10" d="M 371.390625 126.175781 L 331.640625 155.960938 L 268.039062 137.347656 L 307.789062 107.5625 Z M 371.390625 126.175781 "/>
<path fill-rule="nonzero" fill="rgb(0%, 74.901961%, 66.27451%)" fill-opacity="1" stroke-width="0.5" stroke-linecap="butt" stroke-linejoin="round" stroke="rgb(0%, 0%, 0%)" stroke-opacity="1" stroke-miterlimit="10" d="M 331.640625 222.230469 L 268.039062 203.613281 L 268.039062 137.347656 L 331.640625 155.960938 Z M 331.640625 222.230469 "/>
<path fill-rule="nonzero" fill="rgb(0%, 42.823529%, 37.647059%)" fill-opacity="1" stroke-width="0.5" stroke-linecap="butt" stroke-linejoin="round" stroke="rgb(0%, 0%, 0%)" stroke-opacity="1" stroke-miterlimit="10" d="M 323.6875 307.707031 L 283.941406 337.492188 L 283.941406 271.222656 L 323.6875 241.4375 Z M 323.6875 307.707031 "/>
<path fill-rule="nonzero" fill="rgb(0%, 57.098039%, 50.196078%)" fill-opacity="1" stroke-width="0.5" stroke-linecap="butt" stroke-linejoin="round" stroke="rgb(0%, 0%, 0%)" stroke-opacity="1" stroke-miterlimit="10" d="M 323.6875 241.4375 L 283.941406 271.222656 L 220.339844 252.609375 L 260.089844 222.824219 Z M 323.6875 241.4375 "/>
<path fill-rule="nonzero" fill="rgb(0%, 71.372549%, 62.745098%)" fill-opacity="1" stroke-width="0.5" stroke-linecap="butt" stroke-linejoin="round" stroke="rgb(0%, 0%, 0%)" stroke-opacity="1" stroke-miterlimit="10" d="M 283.941406 337.492188 L 220.339844 318.875 L 220.339844 252.609375 L 283.941406 271.222656 Z M 283.941406 337.492188 "/>
<path fill-rule="nonzero" fill="rgb(0%, 44.941176%, 39.764706%)" fill-opacity="1" stroke-width="0.5" stroke-linecap="butt" stroke-linejoin="round" stroke="rgb(0%, 0%, 0%)" stroke-opacity="1" stroke-miterlimit="10" d="M 247.371094 205.847656 L 207.621094 235.632812 L 207.621094 169.363281 L 247.371094 139.582031 Z M 247.371094 205.847656 "/>
<path fill-rule="nonzero" fill="rgb(0%, 59.921569%, 53.019608%)" fill-opacity="1" stroke-width="0.5" stroke-linecap="butt" stroke-linejoin="round" stroke="rgb(0%, 0%, 0%)" stroke-opacity="1" stroke-miterlimit="10" d="M 247.371094 139.582031 L 207.621094 169.363281 L 144.019531 150.75 L 183.769531 120.964844 Z M 247.371094 139.582031 "/>
<path fill-rule="nonzero" fill="rgb(0%, 74.901961%, 66.27451%)" fill-opacity="1" stroke-width="0.5" stroke-linecap="butt" stroke-linejoin="round" stroke="rgb(0%, 0%, 0%)" stroke-opacity="1" stroke-miterlimit="10" d="M 207.621094 235.632812 L 144.019531 217.015625 L 144.019531 150.75 L 207.621094 169.363281 Z M 207.621094 235.632812 "/>
<path fill-rule="nonzero" fill="rgb(0%, 40.705882%, 35.529412%)" fill-opacity="1" stroke-width="0.5" stroke-linecap="butt" stroke-linejoin="round" stroke="rgb(0%, 0%, 0%)" stroke-opacity="1" stroke-miterlimit="10" d="M 275.988281 422.96875 L 236.238281 452.753906 L 236.238281 386.484375 L 275.988281 356.699219 Z M 275.988281 422.96875 "/>
<path fill-rule="nonzero" fill="rgb(0%, 54.27451%, 47.372549%)" fill-opacity="1" stroke-width="0.5" stroke-linecap="butt" stroke-linejoin="round" stroke="rgb(0%, 0%, 0%)" stroke-opacity="1" stroke-miterlimit="10" d="M 275.988281 356.699219 L 236.238281 386.484375 L 172.640625 367.871094 L 212.390625 338.085938 Z M 275.988281 356.699219 "/>
<path fill-rule="nonzero" fill="rgb(0%, 67.843137%, 59.215686%)" fill-opacity="1" stroke-width="0.5" stroke-linecap="butt" stroke-linejoin="round" stroke="rgb(0%, 0%, 0%)" stroke-opacity="1" stroke-miterlimit="10" d="M 236.238281 452.753906 L 172.640625 434.136719 L 172.640625 367.871094 L 236.238281 386.484375 Z M 236.238281 452.753906 "/>
<path fill-rule="nonzero" fill="rgb(0%, 42.823529%, 37.647059%)" fill-opacity="1" stroke-width="0.5" stroke-linecap="butt" stroke-linejoin="round" stroke="rgb(0%, 0%, 0%)" stroke-opacity="1" stroke-miterlimit="10" d="M 199.667969 321.109375 L 159.917969 350.894531 L 159.917969 284.625 L 199.667969 254.84375 Z M 199.667969 321.109375 "/>
<path fill-rule="nonzero" fill="rgb(0%, 57.098039%, 50.196078%)" fill-opacity="1" stroke-width="0.5" stroke-linecap="butt" stroke-linejoin="round" stroke="rgb(0%, 0%, 0%)" stroke-opacity="1" stroke-miterlimit="10" d="M 199.667969 254.84375 L 159.917969 284.625 L 96.320312 266.011719 L 136.070312 236.226562 Z M 199.667969 254.84375 "/>
<path fill-rule="nonzero" fill="rgb(0%, 71.372549%, 62.745098%)" fill-opacity="1" stroke-width="0.5" stroke-linecap="butt" stroke-linejoin="round" stroke="rgb(0%, 0%, 0%)" stroke-opacity="1" stroke-miterlimit="10" d="M 159.917969 350.894531 L 96.320312 332.277344 L 96.320312 266.011719 L 159.917969 284.625 Z M 159.917969 350.894531 "/>
<path fill-rule="nonzero" fill="rgb(0%, 44.941176%, 39.764706%)" fill-opacity="1" stroke-width="0.5" stroke-linecap="butt" stroke-linejoin="round" stroke="rgb(0%, 0%, 0%)" stroke-opacity="1" stroke-miterlimit="10" d="M 123.351562 219.25 L 83.601562 249.035156 L 83.601562 182.765625 L 123.351562 152.984375 Z M 123.351562 219.25 "/>
<path fill-rule="nonzero" fill="rgb(0%, 59.921569%, 53.019608%)" fill-opacity="1" stroke-width="0.5" stroke-linecap="butt" stroke-linejoin="round" stroke="rgb(0%, 0%, 0%)" stroke-opacity="1" stroke-miterlimit="10" d="M 123.351562 152.984375 L 83.601562 182.765625 L 20 164.152344 L 59.75 134.367188 Z M 123.351562 152.984375 "/>
<path fill-rule="nonzero" fill="rgb(0%, 74.901961%, 66.27451%)" fill-opacity="1" stroke-width="0.5" stroke-linecap="butt" stroke-linejoin="round" stroke="rgb(0%, 0%, 0%)" stroke-opacity="1" stroke-miterlimit="10" d="M 83.601562 249.035156 L 20 230.417969 L 20 164.152344 L 83.601562 182.765625 Z M 83.601562 249.035156 "/>
<path fill-rule="nonzero" fill="rgb(27.764706%, 41.176471%, 0%)" fill-opacity="1" stroke-width="0.5" stroke-linecap="butt" stroke-linejoin="round" stroke="rgb(0%, 0%, 0%)" stroke-opacity="1" stroke-miterlimit="10" d="M 323.6875 228.1875 L 283.941406 257.96875 L 283.941406 191.699219 L 323.6875 161.917969 Z M 323.6875 228.1875 "/>
<path fill-rule="nonzero" fill="rgb(37.019608%, 54.901961%, 0%)" fill-opacity="1" stroke-width="0.5" stroke-linecap="butt" stroke-linejoin="round" stroke="rgb(0%, 0%, 0%)" stroke-opacity="1" stroke-miterlimit="10" d="M 323.6875 161.917969 L 283.941406 191.699219 L 220.339844 173.085938 L 260.089844 143.304688 Z M 323.6875 161.917969 "/>
<path fill-rule="nonzero" fill="rgb(46.27451%, 68.627451%, 0%)" fill-opacity="1" stroke-width="0.5" stroke-linecap="butt" stroke-linejoin="round" stroke="rgb(0%, 0%, 0%)" stroke-opacity="1" stroke-miterlimit="10" d="M 283.941406 257.96875 L 220.339844 239.355469 L 220.339844 173.085938 L 283.941406 191.699219 Z M 283.941406 257.96875 "/>
<path fill-rule="nonzero" fill="rgb(25.647059%, 39.058824%, 0%)" fill-opacity="1" stroke-width="0.5" stroke-linecap="butt" stroke-linejoin="round" stroke="rgb(0%, 0%, 0%)" stroke-opacity="1" stroke-miterlimit="10" d="M 275.988281 343.449219 L 236.238281 373.230469 L 236.238281 306.960938 L 275.988281 277.179688 Z M 275.988281 343.449219 "/>
<path fill-rule="nonzero" fill="rgb(34.196078%, 52.078431%, 0%)" fill-opacity="1" stroke-width="0.5" stroke-linecap="butt" stroke-linejoin="round" stroke="rgb(0%, 0%, 0%)" stroke-opacity="1" stroke-miterlimit="10" d="M 275.988281 277.179688 L 236.238281 306.960938 L 172.640625 288.347656 L 212.390625 258.566406 Z M 275.988281 277.179688 "/>
<path fill-rule="nonzero" fill="rgb(42.745098%, 65.098039%, 0%)" fill-opacity="1" stroke-width="0.5" stroke-linecap="butt" stroke-linejoin="round" stroke="rgb(0%, 0%, 0%)" stroke-opacity="1" stroke-miterlimit="10" d="M 236.238281 373.230469 L 172.640625 354.617188 L 172.640625 288.347656 L 236.238281 306.960938 Z M 236.238281 373.230469 "/>
<path fill-rule="nonzero" fill="rgb(27.764706%, 41.176471%, 0%)" fill-opacity="1" stroke-width="0.5" stroke-linecap="butt" stroke-linejoin="round" stroke="rgb(0%, 0%, 0%)" stroke-opacity="1" stroke-miterlimit="10" d="M 199.667969 241.589844 L 159.917969 271.371094 L 159.917969 205.105469 L 199.667969 175.320312 Z M 199.667969 241.589844 "/>
<path fill-rule="nonzero" fill="rgb(37.019608%, 54.901961%, 0%)" fill-opacity="1" stroke-width="0.5" stroke-linecap="butt" stroke-linejoin="round" stroke="rgb(0%, 0%, 0%)" stroke-opacity="1" stroke-miterlimit="10" d="M 199.667969 175.320312 L 159.917969 205.105469 L 96.320312 186.488281 L 136.070312 156.707031 Z M 199.667969 175.320312 "/>
<path fill-rule="nonzero" fill="rgb(46.27451%, 68.627451%, 0%)" fill-opacity="1" stroke-width="0.5" stroke-linecap="butt" stroke-linejoin="round" stroke="rgb(0%, 0%, 0%)" stroke-opacity="1" stroke-miterlimit="10" d="M 159.917969 271.371094 L 96.320312 252.757812 L 96.320312 186.488281 L 159.917969 205.105469 Z M 159.917969 271.371094 "/>
<path fill-rule="nonzero" fill="rgb(0%, 44.941176%, 39.764706%)" fill-opacity="1" stroke-width="0.5" stroke-linecap="butt" stroke-linejoin="round" stroke="rgb(0%, 0%, 0%)" stroke-opacity="1" stroke-miterlimit="10" d="M 400.007812 250.523438 L 360.257812 280.308594 L 360.257812 214.039062 L 400.007812 184.253906 Z M 400.007812 250.523438 "/>
<path fill-rule="nonzero" fill="rgb(0%, 59.921569%, 53.019608%)" fill-opacity="1" stroke-width="0.5" stroke-linecap="butt" stroke-linejoin="round" stroke="rgb(0%, 0%, 0%)" stroke-opacity="1" stroke-miterlimit="10" d="M 400.007812 184.253906 L 360.257812 214.039062 L 296.660156 195.425781 L 336.410156 165.640625 Z M 400.007812 184.253906 "/>
<path fill-rule="nonzero" fill="rgb(0%, 74.901961%, 66.27451%)" fill-opacity="1" stroke-width="0.5" stroke-linecap="butt" stroke-linejoin="round" stroke="rgb(0%, 0%, 0%)" stroke-opacity="1" stroke-miterlimit="10" d="M 360.257812 280.308594 L 296.660156 261.691406 L 296.660156 195.425781 L 360.257812 214.039062 Z M 360.257812 280.308594 "/>
<path fill-rule="nonzero" fill="rgb(0%, 47.058824%, 41.882353%)" fill-opacity="1" stroke-width="0.5" stroke-linecap="butt" stroke-linejoin="round" stroke="rgb(0%, 0%, 0%)" stroke-opacity="1" stroke-miterlimit="10" d="M 323.6875 148.664062 L 283.941406 178.449219 L 283.941406 112.179688 L 323.6875 82.394531 Z M 323.6875 148.664062 "/>
<path fill-rule="nonzero" fill="rgb(0%, 62.745098%, 55.843137%)" fill-opacity="1" stroke-width="0.5" stroke-linecap="butt" stroke-linejoin="round" stroke="rgb(0%, 0%, 0%)" stroke-opacity="1" stroke-miterlimit="10" d="M 323.6875 82.394531 L 283.941406 112.179688 L 220.339844 93.566406 L 260.089844 63.78125 Z M 323.6875 82.394531 "/>
<path fill-rule="nonzero" fill="rgb(0%, 78.431373%, 69.803922%)" fill-opacity="1" stroke-width="0.5" stroke-linecap="butt" stroke-linejoin="round" stroke="rgb(0%, 0%, 0%)" stroke-opacity="1" stroke-miterlimit="10" d="M 283.941406 178.449219 L 220.339844 159.832031 L 220.339844 93.566406 L 283.941406 112.179688 Z M 283.941406 178.449219 "/>
<path fill-rule="nonzero" fill="rgb(0%, 42.823529%, 37.647059%)" fill-opacity="1" stroke-width="0.5" stroke-linecap="butt" stroke-linejoin="round" stroke="rgb(0%, 0%, 0%)" stroke-opacity="1" stroke-miterlimit="10" d="M 352.308594 365.785156 L 312.558594 395.566406 L 312.558594 329.300781 L 352.308594 299.515625 Z M 352.308594 365.785156 "/>
<path fill-rule="nonzero" fill="rgb(0%, 57.098039%, 50.196078%)" fill-opacity="1" stroke-width="0.5" stroke-linecap="butt" stroke-linejoin="round" stroke="rgb(0%, 0%, 0%)" stroke-opacity="1" stroke-miterlimit="10" d="M 352.308594 299.515625 L 312.558594 329.300781 L 248.960938 310.6875 L 288.710938 280.902344 Z M 352.308594 299.515625 "/>
<path fill-rule="nonzero" fill="rgb(0%, 71.372549%, 62.745098%)" fill-opacity="1" stroke-width="0.5" stroke-linecap="butt" stroke-linejoin="round" stroke="rgb(0%, 0%, 0%)" stroke-opacity="1" stroke-miterlimit="10" d="M 312.558594 395.566406 L 248.960938 376.953125 L 248.960938 310.6875 L 312.558594 329.300781 Z M 312.558594 395.566406 "/>
<path fill-rule="nonzero" fill="rgb(53.882353%, 31.764706%, 11.058824%)" fill-opacity="1" stroke-width="0.5" stroke-linecap="butt" stroke-linejoin="round" stroke="rgb(0%, 0%, 0%)" stroke-opacity="1" stroke-miterlimit="10" d="M 275.988281 263.925781 L 236.238281 293.710938 L 236.238281 227.441406 L 275.988281 197.65625 Z M 275.988281 263.925781 "/>
<path fill-rule="nonzero" fill="rgb(71.843137%, 42.352941%, 14.745098%)" fill-opacity="1" stroke-width="0.5" stroke-linecap="butt" stroke-linejoin="round" stroke="rgb(0%, 0%, 0%)" stroke-opacity="1" stroke-miterlimit="10" d="M 275.988281 197.65625 L 236.238281 227.441406 L 172.640625 208.828125 L 212.390625 179.042969 Z M 275.988281 197.65625 "/>
<path fill-rule="nonzero" fill="rgb(89.803922%, 52.941176%, 18.431373%)" fill-opacity="1" stroke-width="0.5" stroke-linecap="butt" stroke-linejoin="round" stroke="rgb(0%, 0%, 0%)" stroke-opacity="1" stroke-miterlimit="10" d="M 236.238281 293.710938 L 172.640625 275.09375 L 172.640625 208.828125 L 236.238281 227.441406 Z M 236.238281 293.710938 "/>
<path fill-rule="nonzero" fill="rgb(0%, 47.058824%, 41.882353%)" fill-opacity="1" stroke-width="0.5" stroke-linecap="butt" stroke-linejoin="round" stroke="rgb(0%, 0%, 0%)" stroke-opacity="1" stroke-miterlimit="10" d="M 199.667969 162.066406 L 159.917969 191.851562 L 159.917969 125.582031 L 199.667969 95.796875 Z M 199.667969 162.066406 "/>
<path fill-rule="nonzero" fill="rgb(0%, 62.745098%, 55.843137%)" fill-opacity="1" stroke-width="0.5" stroke-linecap="butt" stroke-linejoin="round" stroke="rgb(0%, 0%, 0%)" stroke-opacity="1" stroke-miterlimit="10" d="M 199.667969 95.796875 L 159.917969 125.582031 L 96.320312 106.96875 L 136.070312 77.183594 Z M 199.667969 95.796875 "/>
<path fill-rule="nonzero" fill="rgb(0%, 78.431373%, 69.803922%)" fill-opacity="1" stroke-width="0.5" stroke-linecap="butt" stroke-linejoin="round" stroke="rgb(0%, 0%, 0%)" stroke-opacity="1" stroke-miterlimit="10" d="M 159.917969 191.851562 L 96.320312 173.234375 L 96.320312 106.96875 L 159.917969 125.582031 Z M 159.917969 191.851562 "/>
<path fill-rule="nonzero" fill="rgb(0%, 42.823529%, 37.647059%)" fill-opacity="1" stroke-width="0.5" stroke-linecap="butt" stroke-linejoin="round" stroke="rgb(0%, 0%, 0%)" stroke-opacity="1" stroke-miterlimit="10" d="M 228.289062 379.1875 L 188.539062 408.972656 L 188.539062 342.703125 L 228.289062 312.917969 Z M 228.289062 379.1875 "/>
<path fill-rule="nonzero" fill="rgb(0%, 57.098039%, 50.196078%)" fill-opacity="1" stroke-width="0.5" stroke-linecap="butt" stroke-linejoin="round" stroke="rgb(0%, 0%, 0%)" stroke-opacity="1" stroke-miterlimit="10" d="M 228.289062 312.917969 L 188.539062 342.703125 L 124.941406 324.089844 L 164.691406 294.304688 Z M 228.289062 312.917969 "/>
<path fill-rule="nonzero" fill="rgb(0%, 71.372549%, 62.745098%)" fill-opacity="1" stroke-width="0.5" stroke-linecap="butt" stroke-linejoin="round" stroke="rgb(0%, 0%, 0%)" stroke-opacity="1" stroke-miterlimit="10" d="M 188.539062 408.972656 L 124.941406 390.355469 L 124.941406 324.089844 L 188.539062 342.703125 Z M 188.539062 408.972656 "/>
<path fill-rule="nonzero" fill="rgb(0%, 44.941176%, 39.764706%)" fill-opacity="1" stroke-width="0.5" stroke-linecap="butt" stroke-linejoin="round" stroke="rgb(0%, 0%, 0%)" stroke-opacity="1" stroke-miterlimit="10" d="M 151.96875 277.328125 L 112.21875 307.113281 L 112.21875 240.84375 L 151.96875 211.058594 Z M 151.96875 277.328125 "/>
<path fill-rule="nonzero" fill="rgb(0%, 59.921569%, 53.019608%)" fill-opacity="1" stroke-width="0.5" stroke-linecap="butt" stroke-linejoin="round" stroke="rgb(0%, 0%, 0%)" stroke-opacity="1" stroke-miterlimit="10" d="M 151.96875 211.058594 L 112.21875 240.84375 L 48.621094 222.230469 L 88.371094 192.445312 Z M 151.96875 211.058594 "/>
<path fill-rule="nonzero" fill="rgb(0%, 74.901961%, 66.27451%)" fill-opacity="1" stroke-width="0.5" stroke-linecap="butt" stroke-linejoin="round" stroke="rgb(0%, 0%, 0%)" stroke-opacity="1" stroke-miterlimit="10" d="M 112.21875 307.113281 L 48.621094 288.496094 L 48.621094 222.230469 L 112.21875 240.84375 Z M 112.21875 307.113281 "/>
<path fill-rule="nonzero" fill="rgb(27.764706%, 41.176471%, 0%)" fill-opacity="1" stroke-width="0.5" stroke-linecap="butt" stroke-linejoin="round" stroke="rgb(0%, 0%, 0%)" stroke-opacity="1" stroke-miterlimit="10" d="M 352.308594 286.261719 L 312.558594 316.046875 L 312.558594 249.777344 L 352.308594 219.996094 Z M 352.308594 286.261719 "/>
<path fill-rule="nonzero" fill="rgb(37.019608%, 54.901961%, 0%)" fill-opacity="1" stroke-width="0.5" stroke-linecap="butt" stroke-linejoin="round" stroke="rgb(0%, 0%, 0%)" stroke-opacity="1" stroke-miterlimit="10" d="M 352.308594 219.996094 L 312.558594 249.777344 L 248.960938 231.164062 L 288.710938 201.378906 Z M 352.308594 219.996094 "/>
<path fill-rule="nonzero" fill="rgb(46.27451%, 68.627451%, 0%)" fill-opacity="1" stroke-width="0.5" stroke-linecap="butt" stroke-linejoin="round" stroke="rgb(0%, 0%, 0%)" stroke-opacity="1" stroke-miterlimit="10" d="M 312.558594 316.046875 L 248.960938 297.433594 L 248.960938 231.164062 L 312.558594 249.777344 Z M 312.558594 316.046875 "/>
<path fill-rule="nonzero" fill="rgb(29.882353%, 43.294118%, 0%)" fill-opacity="1" stroke-width="0.5" stroke-linecap="butt" stroke-linejoin="round" stroke="rgb(0%, 0%, 0%)" stroke-opacity="1" stroke-miterlimit="10" d="M 275.988281 184.402344 L 236.238281 214.1875 L 236.238281 147.917969 L 275.988281 118.136719 Z M 275.988281 184.402344 "/>
<path fill-rule="nonzero" fill="rgb(39.843137%, 57.72549%, 0%)" fill-opacity="1" stroke-width="0.5" stroke-linecap="butt" stroke-linejoin="round" stroke="rgb(0%, 0%, 0%)" stroke-opacity="1" stroke-miterlimit="10" d="M 275.988281 118.136719 L 236.238281 147.917969 L 172.640625 129.304688 L 212.390625 99.523438 Z M 275.988281 118.136719 "/>
<path fill-rule="nonzero" fill="rgb(49.803922%, 72.156863%, 0%)" fill-opacity="1" stroke-width="0.5" stroke-linecap="butt" stroke-linejoin="round" stroke="rgb(0%, 0%, 0%)" stroke-opacity="1" stroke-miterlimit="10" d="M 236.238281 214.1875 L 172.640625 195.574219 L 172.640625 129.304688 L 236.238281 147.917969 Z M 236.238281 214.1875 "/>
<path fill-rule="nonzero" fill="rgb(27.764706%, 41.176471%, 0%)" fill-opacity="1" stroke-width="0.5" stroke-linecap="butt" stroke-linejoin="round" stroke="rgb(0%, 0%, 0%)" stroke-opacity="1" stroke-miterlimit="10" d="M 228.289062 299.664062 L 188.539062 329.449219 L 188.539062 263.179688 L 228.289062 233.398438 Z M 228.289062 299.664062 "/>
<path fill-rule="nonzero" fill="rgb(37.019608%, 54.901961%, 0%)" fill-opacity="1" stroke-width="0.5" stroke-linecap="butt" stroke-linejoin="round" stroke="rgb(0%, 0%, 0%)" stroke-opacity="1" stroke-miterlimit="10" d="M 228.289062 233.398438 L 188.539062 263.179688 L 124.941406 244.566406 L 164.691406 214.785156 Z M 228.289062 233.398438 "/>
<path fill-rule="nonzero" fill="rgb(46.27451%, 68.627451%, 0%)" fill-opacity="1" stroke-width="0.5" stroke-linecap="butt" stroke-linejoin="round" stroke="rgb(0%, 0%, 0%)" stroke-opacity="1" stroke-miterlimit="10" d="M 188.539062 329.449219 L 124.941406 310.835938 L 124.941406 244.566406 L 188.539062 263.179688 Z M 188.539062 329.449219 "/>
<path fill-rule="nonzero" fill="rgb(0%, 44.941176%, 39.764706%)" fill-opacity="1" stroke-width="0.5" stroke-linecap="butt" stroke-linejoin="round" stroke="rgb(0%, 0%, 0%)" stroke-opacity="1" stroke-miterlimit="10" d="M 428.628906 308.601562 L 388.878906 338.382812 L 388.878906 272.117188 L 428.628906 242.332031 Z M 428.628906 308.601562 "/>
<path fill-rule="nonzero" fill="rgb(0%, 59.921569%, 53.019608%)" fill-opacity="1" stroke-width="0.5" stroke-linecap="butt" stroke-linejoin="round" stroke="rgb(0%, 0%, 0%)" stroke-opacity="1" stroke-miterlimit="10" d="M 428.628906 242.332031 L 388.878906 272.117188 L 325.28125 253.5 L 365.03125 223.71875 Z M 428.628906 242.332031 "/>
<path fill-rule="nonzero" fill="rgb(0%, 74.901961%, 66.27451%)" fill-opacity="1" stroke-width="0.5" stroke-linecap="butt" stroke-linejoin="round" stroke="rgb(0%, 0%, 0%)" stroke-opacity="1" stroke-miterlimit="10" d="M 388.878906 338.382812 L 325.28125 319.769531 L 325.28125 253.5 L 388.878906 272.117188 Z M 388.878906 338.382812 "/>
<path fill-rule="nonzero" fill="rgb(0%, 47.058824%, 41.882353%)" fill-opacity="1" stroke-width="0.5" stroke-linecap="butt" stroke-linejoin="round" stroke="rgb(0%, 0%, 0%)" stroke-opacity="1" stroke-miterlimit="10" d="M 352.308594 206.742188 L 312.558594 236.523438 L 312.558594 170.257812 L 352.308594 140.472656 Z M 352.308594 206.742188 "/>
<path fill-rule="nonzero" fill="rgb(0%, 62.745098%, 55.843137%)" fill-opacity="1" stroke-width="0.5" stroke-linecap="butt" stroke-linejoin="round" stroke="rgb(0%, 0%, 0%)" stroke-opacity="1" stroke-miterlimit="10" d="M 352.308594 140.472656 L 312.558594 170.257812 L 248.960938 151.640625 L 288.710938 121.859375 Z M 352.308594 140.472656 "/>
<path fill-rule="nonzero" fill="rgb(0%, 78.431373%, 69.803922%)" fill-opacity="1" stroke-width="0.5" stroke-linecap="butt" stroke-linejoin="round" stroke="rgb(0%, 0%, 0%)" stroke-opacity="1" stroke-miterlimit="10" d="M 312.558594 236.523438 L 248.960938 217.910156 L 248.960938 151.640625 L 312.558594 170.257812 Z M 312.558594 236.523438 "/>
<path fill-rule="nonzero" fill="rgb(0%, 49.176471%, 44%)" fill-opacity="1" stroke-width="0.5" stroke-linecap="butt" stroke-linejoin="round" stroke="rgb(0%, 0%, 0%)" stroke-opacity="1" stroke-miterlimit="10" d="M 275.988281 104.882812 L 236.238281 134.664062 L 236.238281 68.398438 L 275.988281 38.613281 Z M 275.988281 104.882812 "/>
<path fill-rule="nonzero" fill="rgb(0%, 65.568627%, 58.666667%)" fill-opacity="1" stroke-width="0.5" stroke-linecap="butt" stroke-linejoin="round" stroke="rgb(0%, 0%, 0%)" stroke-opacity="1" stroke-miterlimit="10" d="M 275.988281 38.613281 L 236.238281 68.398438 L 172.640625 49.785156 L 212.390625 20 Z M 275.988281 38.613281 "/>
<path fill-rule="nonzero" fill="rgb(0%, 81.960784%, 73.333333%)" fill-opacity="1" stroke-width="0.5" stroke-linecap="butt" stroke-linejoin="round" stroke="rgb(0%, 0%, 0%)" stroke-opacity="1" stroke-miterlimit="10" d="M 236.238281 134.664062 L 172.640625 116.050781 L 172.640625 49.785156 L 236.238281 68.398438 Z M 236.238281 134.664062 "/>
<path fill-rule="nonzero" fill="rgb(0%, 44.941176%, 39.764706%)" fill-opacity="1" stroke-width="0.5" stroke-linecap="butt" stroke-linejoin="round" stroke="rgb(0%, 0%, 0%)" stroke-opacity="1" stroke-miterlimit="10" d="M 304.609375 322.003906 L 264.859375 351.785156 L 264.859375 285.519531 L 304.609375 255.734375 Z M 304.609375 322.003906 "/>
<path fill-rule="nonzero" fill="rgb(0%, 59.921569%, 53.019608%)" fill-opacity="1" stroke-width="0.5" stroke-linecap="butt" stroke-linejoin="round" stroke="rgb(0%, 0%, 0%)" stroke-opacity="1" stroke-miterlimit="10" d="M 304.609375 255.734375 L 264.859375 285.519531 L 201.257812 266.902344 L 241.007812 237.121094 Z M 304.609375 255.734375 "/>
<path fill-rule="nonzero" fill="rgb(0%, 74.901961%, 66.27451%)" fill-opacity="1" stroke-width="0.5" stroke-linecap="butt" stroke-linejoin="round" stroke="rgb(0%, 0%, 0%)" stroke-opacity="1" stroke-miterlimit="10" d="M 264.859375 351.785156 L 201.257812 333.171875 L 201.257812 266.902344 L 264.859375 285.519531 Z M 264.859375 351.785156 "/>
<path fill-rule="nonzero" fill="rgb(0%, 47.058824%, 41.882353%)" fill-opacity="1" stroke-width="0.5" stroke-linecap="butt" stroke-linejoin="round" stroke="rgb(0%, 0%, 0%)" stroke-opacity="1" stroke-miterlimit="10" d="M 228.289062 220.144531 L 188.539062 249.925781 L 188.539062 183.660156 L 228.289062 153.875 Z M 228.289062 220.144531 "/>
<path fill-rule="nonzero" fill="rgb(0%, 62.745098%, 55.843137%)" fill-opacity="1" stroke-width="0.5" stroke-linecap="butt" stroke-linejoin="round" stroke="rgb(0%, 0%, 0%)" stroke-opacity="1" stroke-miterlimit="10" d="M 228.289062 153.875 L 188.539062 183.660156 L 124.941406 165.046875 L 164.691406 135.261719 Z M 228.289062 153.875 "/>
<path fill-rule="nonzero" fill="rgb(0%, 78.431373%, 69.803922%)" fill-opacity="1" stroke-width="0.5" stroke-linecap="butt" stroke-linejoin="round" stroke="rgb(0%, 0%, 0%)" stroke-opacity="1" stroke-miterlimit="10" d="M 188.539062 249.925781 L 124.941406 231.3125 L 124.941406 165.046875 L 188.539062 183.660156 Z M 188.539062 249.925781 "/>
<path fill-rule="nonzero" fill="rgb(0%, 44.941176%, 39.764706%)" fill-opacity="1" stroke-width="0.5" stroke-linecap="butt" stroke-linejoin="round" stroke="rgb(0%, 0%, 0%)" stroke-opacity="1" stroke-miterlimit="10" d="M 180.589844 335.40625 L 140.839844 365.1875 L 140.839844 298.921875 L 180.589844 269.136719 Z M 180.589844 335.40625 "/>
<path fill-rule="nonzero" fill="rgb(0%, 59.921569%, 53.019608%)" fill-opacity="1" stroke-width="0.5" stroke-linecap="butt" stroke-linejoin="round" stroke="rgb(0%, 0%, 0%)" stroke-opacity="1" stroke-miterlimit="10" d="M 180.589844 269.136719 L 140.839844 298.921875 L 77.238281 280.308594 L 116.988281 250.523438 Z M 180.589844 269.136719 "/>
<path fill-rule="nonzero" fill="rgb(0%, 74.901961%, 66.27451%)" fill-opacity="1" stroke-width="0.5" stroke-linecap="butt" stroke-linejoin="round" stroke="rgb(0%, 0%, 0%)" stroke-opacity="1" stroke-miterlimit="10" d="M 140.839844 365.1875 L 77.238281 346.574219 L 77.238281 280.308594 L 140.839844 298.921875 Z M 140.839844 365.1875 "/>
</svg>
