<?xml version="1.0" encoding="UTF-8" standalone="no"?>
<!-- Created with Inkscape (http://www.inkscape.org/) -->

<svg
   xmlns:dc="http://purl.org/dc/elements/1.1/"
   xmlns:cc="http://creativecommons.org/ns#"
   xmlns:rdf="http://www.w3.org/1999/02/22-rdf-syntax-ns#"
   xmlns:svg="http://www.w3.org/2000/svg"
   xmlns="http://www.w3.org/2000/svg"
   xmlns:xlink="http://www.w3.org/1999/xlink"
   version="1.2"
   width="270"
   height="270"
   id="svg2">
  <defs
     id="defs4">
    <radialGradient
       cx="61.518883"
       cy="132.28575"
       r="29.036913"
       fx="61.518883"
       fy="132.28575"
       id="radialGradient2801"
       xlink:href="#linearGradient2795"
       gradientUnits="userSpaceOnUse"
       gradientTransform="matrix(1,0,0,0.177966,0,108.7434)" />
    <linearGradient
       x1="172.94208"
       y1="76.176224"
       x2="26.670298"
       y2="76.313133"
       id="linearGradient2258"
       xlink:href="#linearGradient4689"
       gradientUnits="userSpaceOnUse"
       gradientTransform="matrix(0.562541,0,0,0.567972,-11.5974,-7.60954)" />
    <linearGradient
       x1="224.23996"
       y1="144.75717"
       x2="-65.308502"
       y2="144.75717"
       id="linearGradient2255"
       xlink:href="#linearGradient4671"
       gradientUnits="userSpaceOnUse"
       gradientTransform="matrix(0.562541,0,0,0.567972,-11.5974,-7.60954)" />
    <linearGradient
       x1="224.23996"
       y1="144.75717"
       x2="-65.308502"
       y2="144.75717"
       id="linearGradient2250"
       xlink:href="#linearGradient4671"
       gradientUnits="userSpaceOnUse"
       gradientTransform="translate(100.2702,99.61116)" />
    <linearGradient
       x1="172.94208"
       y1="77.475983"
       x2="26.670298"
       y2="76.313133"
       id="linearGradient2248"
       xlink:href="#linearGradient4689"
       gradientUnits="userSpaceOnUse"
       gradientTransform="translate(100.2702,99.61116)" />
    <linearGradient
       x1="224.23996"
       y1="144.75717"
       x2="-65.308502"
       y2="144.75717"
       id="linearGradient2589"
       xlink:href="#linearGradient4671"
       gradientUnits="userSpaceOnUse"
       gradientTransform="translate(100.2702,99.61116)" />
    <linearGradient
       x1="172.94208"
       y1="77.475983"
       x2="26.670298"
       y2="76.313133"
       id="linearGradient2587"
       xlink:href="#linearGradient4689"
       gradientUnits="userSpaceOnUse"
       gradientTransform="translate(100.2702,99.61116)" />
    <linearGradient
       x1="172.94208"
       y1="77.475983"
       x2="26.670298"
       y2="76.313133"
       id="linearGradient2990"
       xlink:href="#linearGradient4689"
       gradientUnits="userSpaceOnUse"
       gradientTransform="translate(100.2702,99.61116)" />
    <linearGradient
       x1="224.23996"
       y1="144.75717"
       x2="-65.308502"
       y2="144.75717"
       id="linearGradient2987"
       xlink:href="#linearGradient4671"
       gradientUnits="userSpaceOnUse"
       gradientTransform="translate(100.2702,99.61116)" />
    <linearGradient
       id="linearGradient4689">
      <stop
         id="stop4691"
         style="stop-color:#5a9fd4;stop-opacity:1"
         offset="0" />
      <stop
         id="stop4693"
         style="stop-color:#306998;stop-opacity:1"
         offset="1" />
    </linearGradient>
    <linearGradient
       id="linearGradient4671">
      <stop
         id="stop4673"
         style="stop-color:#ffd43b;stop-opacity:1"
         offset="0" />
      <stop
         id="stop4675"
         style="stop-color:#ffe873;stop-opacity:1"
         offset="1" />
    </linearGradient>
    <linearGradient
       id="linearGradient3236">
      <stop
         id="stop3244"
         style="stop-color:#f4f4f4;stop-opacity:1"
         offset="0" />
      <stop
         id="stop3240"
         style="stop-color:#ffffff;stop-opacity:1"
         offset="1" />
    </linearGradient>
    <linearGradient
       id="linearGradient3676">
      <stop
         id="stop3678"
         style="stop-color:#b2b2b2;stop-opacity:0.5"
         offset="0" />
      <stop
         id="stop3680"
         style="stop-color:#b3b3b3;stop-opacity:0"
         offset="1" />
    </linearGradient>
    <linearGradient
       id="linearGradient2787">
      <stop
         id="stop2789"
         style="stop-color:#7f7f7f;stop-opacity:0.5"
         offset="0" />
      <stop
         id="stop2791"
         style="stop-color:#7f7f7f;stop-opacity:0"
         offset="1" />
    </linearGradient>
    <linearGradient
       id="linearGradient2795">
      <stop
         id="stop2797"
         style="stop-color:#b8b8b8;stop-opacity:0.49803922"
         offset="0" />
      <stop
         id="stop2799"
         style="stop-color:#7f7f7f;stop-opacity:0"
         offset="1" />
    </linearGradient>
    <linearGradient
       x1="26.648937"
       y1="20.603781"
       x2="135.66525"
       y2="114.39767"
       id="linearGradient4286"
       xlink:href="#linearGradient4689"
       gradientUnits="userSpaceOnUse"
       gradientTransform="matrix(0.562541,0,0,0.567972,122.60859,454.89347)" />
    <linearGradient
       x1="150.96111"
       y1="192.35176"
       x2="112.03144"
       y2="137.27299"
       id="linearGradient4288"
       xlink:href="#linearGradient4671"
       gradientUnits="userSpaceOnUse"
       gradientTransform="matrix(0.562541,0,0,0.567972,122.60859,454.89347)" />
    <radialGradient
       cx="61.518883"
       cy="132.28575"
       r="29.036913"
       fx="61.518883"
       fy="132.28575"
       id="radialGradient4290"
       xlink:href="#linearGradient2795"
       gradientUnits="userSpaceOnUse"
       gradientTransform="matrix(2.382716e-8,-0.296405,1.43676,4.683673e-7,-128.544,150.5202)" />
    <linearGradient
       x1="150.96111"
       y1="192.35176"
       x2="112.03144"
       y2="137.27299"
       id="linearGradient3845"
       xlink:href="#linearGradient4671"
       gradientUnits="userSpaceOnUse"
       gradientTransform="matrix(0.33641179,0,0,0.33965967,148.34988,814.44405)" />
    <linearGradient
       x1="26.648937"
       y1="20.603781"
       x2="135.66525"
       y2="114.39767"
       id="linearGradient3848"
       xlink:href="#linearGradient4689"
       gradientUnits="userSpaceOnUse"
       gradientTransform="matrix(0.33641179,0,0,0.33965967,148.34988,814.44405)" />
  </defs>
  <metadata
     id="metadata7">
    <rdf:RDF>
      <cc:Work
         rdf:about="">
        <dc:format>image/svg+xml</dc:format>
        <dc:type
           rdf:resource="http://purl.org/dc/dcmitype/StillImage" />
        <dc:title></dc:title>
      </cc:Work>
    </rdf:RDF>
  </metadata>
  <g
     transform="translate(0,-782.35975)"
     id="layer3"
     style="display:inline">
    <path
       d="m 7.9987458,790.34947 0,254.01663 254.0165542,0 0,-254.01663 -254.0165542,0 z m 8.4672182,8.46723 237.082106,0 0,237.0822 -237.082106,0 0,-237.0822 z"
       id="rect4378"
       style="fill:#448844;fill-opacity:1" />
  </g>
  <g
     transform="translate(0,-782.35975)"
     id="layer6"
     style="display:inline">
    <path
       d="m 110.46717,132.28575 a 48.948284,8.6066771 0 1 1 -97.896571,0 48.948284,8.6066771 0 1 1 97.896571,0 z"
       transform="matrix(0.43898393,0,0,0.48411302,163.68875,833.76892)"
       id="path1894"
       style="opacity:0.44382025;fill:url(#radialGradient4290);fill-opacity:1;fill-rule:nonzero;stroke:none;display:inline" />
  </g>
  <g
     transform="translate(0,-782.35975)"
     id="layer1"
     style="display:inline">
    <path
       d="m 190.15754,821.44287 c -2.74113,0.0127 -5.35884,0.24652 -7.66216,0.6541 -6.78527,1.19873 -8.01722,3.70778 -8.01722,8.33492 l 0,6.11104 16.03445,0 0,2.03701 -16.03445,0 -6.01761,0 c -4.66006,0 -8.74053,2.80096 -10.01685,8.12935 -1.47222,6.10759 -1.53752,9.91881 0,16.29609 1.13979,4.74702 3.86175,8.12938 8.52181,8.12938 l 5.51301,0 0,-7.32578 c 0,-5.29243 4.57914,-9.9608 10.01686,-9.9608 l 16.01579,0 c 4.45821,0 8.01722,-3.67075 8.01722,-8.14805 l 0,-15.26824 c 0,-4.34544 -3.66586,-7.60969 -8.01722,-8.33492 -2.75449,-0.45852 -5.6125,-0.66684 -8.35363,-0.6541 z m -8.67131,4.91499 c 1.65623,0 3.0088,1.37465 3.0088,3.06486 0,1.68424 -1.35257,3.04619 -3.0088,3.04619 -1.66218,0 -3.00879,-1.36195 -3.00879,-3.04619 -1e-5,-1.69021 1.34661,-3.06486 3.00879,-3.06486 z"
       id="path1948"
       style="fill:url(#linearGradient3848);fill-opacity:1" />
    <path
       d="m 208.52803,838.57994 0,7.12019 c 0,5.52019 -4.68005,10.16637 -10.01686,10.16637 l -16.01579,0 c -4.38699,0 -8.01722,3.75467 -8.01722,8.14805 l 0,15.26824 c 0,4.34544 3.77865,6.90136 8.01722,8.14805 5.07562,1.49244 9.94286,1.76215 16.01579,0 4.03674,-1.16875 8.01722,-3.52092 8.01722,-8.14805 l 0,-6.11103 -16.01578,0 0,-2.037 16.01578,0 8.01723,0 c 4.66006,0 6.39659,-3.2505 8.01723,-8.12938 1.67405,-5.0227 1.60282,-9.85285 0,-16.29609 -1.15166,-4.63911 -3.35124,-8.12935 -8.01723,-8.12935 l -6.01759,0 z m -9.00771,38.66585 c 1.66219,10e-6 3.00879,1.36193 3.00879,3.04617 0,1.69022 -1.3466,3.06486 -3.00879,3.06486 -1.65625,0 -3.00879,-1.37464 -3.00879,-3.06486 0,-1.68424 1.35253,-3.04617 3.00879,-3.04617 z"
       id="path1950"
       style="fill:url(#linearGradient3845);fill-opacity:1" />
  </g>
  <g
     transform="translate(0,-782.35975)"
     id="layer7">
    <g
       transform="matrix(0.42336095,0,0,0.42336095,-19.096353,675.03653)"
       id="flowRoot3853"
       style="font-size:40px;font-style:normal;font-weight:normal;line-height:125%;letter-spacing:0px;word-spacing:0px;fill:#646464;fill-opacity:1;stroke:none;font-family:flux;-inkscape-font-specification:flux">
      <path
         d="m 581.752,558.6376 0,-13.944 -4.512,0 0.552,-1.176 10.176,-0.024 0,1.2 -4.44,0 0,13.944 -1.776,0"
         id="path3067"
         style="font-size:24px;fill:#646464;font-family:Flux Regular;-inkscape-font-specification:Flux Regular" />
      <path
         d="m 602.07512,558.6376 0,-12.48 -4.776,12.168 -1.488,0.528 -4.944,-12.264 0,12.048 -1.22399,0 0,-14.832 1.75199,-0.576 5.424,12.912 4.968,-12.624 2.04001,0 0,15.12 -1.75201,0"
         id="path3069"
         style="font-size:24px;fill:#646464;font-family:Flux Regular;-inkscape-font-specification:Flux Regular" />
    </g>
  </g>
  <g
     transform="translate(0,-782.35975)"
     id="layer4">
    <g
       transform="matrix(0.42336095,0,0,0.42336095,-20.789798,656.82615)"
       id="flowRoot3030"
       style="font-size:40px;font-style:normal;font-weight:normal;line-height:125%;letter-spacing:0px;word-spacing:0px;fill:#646464;fill-opacity:1;stroke:none;font-family:Flux Regular;-inkscape-font-specification:Flux Regular">
      <path
         d="m 148.32,722.0063 0.172,-98.9 c -1e-5,6e-5 0.63066,-0.63061 1.892,-1.892 1.26132,-1.37594 3.26798,-2.8666 6.02,-4.472 2.86665,-1.71993 6.47864,-3.26793 10.836,-4.644 4.47197,-1.37593 9.91863,-2.12126 16.34,-2.236 l 0.172,0.172 c 5.15995,-0.11459 9.57461,0.91741 13.244,3.096 3.78394,2.17873 6.87993,5.16006 9.288,8.944 2.5226,3.78406 4.35726,8.14139 5.504,13.072 1.26126,4.93071 1.89192,10.14804 1.892,15.652 -8e-5,4.81603 -0.63074,9.51736 -1.892,14.104 -1.14674,4.47201 -2.9814,8.48534 -5.504,12.04 -2.52273,3.44 -5.67606,6.24933 -9.46,8.428 -3.78406,2.17866 -8.25605,3.32533 -13.416,3.44 -4.24271,0.11466 -8.1987,-0.45867 -11.868,-1.72 -3.66936,-1.26134 -7.28136,-2.98133 -10.836,-5.16 l 0,44.548 -12.384,-4.472 m 12.212,-48.676 c 1.03198,0.68801 2.29331,1.43334 3.784,2.236 1.49064,0.80267 3.09597,1.54801 4.816,2.236 1.83463,0.688 3.72663,1.26134 5.676,1.72 1.94929,0.344 3.89863,0.45867 5.848,0.344 4.12795,-0.22933 7.39595,-1.31866 9.804,-3.268 2.52261,-1.94932 4.41461,-4.35732 5.676,-7.224 1.26127,-2.98132 2.06394,-6.13465 2.408,-9.46 0.45861,-3.43997 0.68794,-6.7653 0.688,-9.976 -6e-5,-3.09596 -0.22939,-6.42129 -0.688,-9.976 -0.34406,-3.66929 -1.14673,-7.05195 -2.408,-10.148 -1.14672,-3.09594 -2.92406,-5.73327 -5.332,-7.912 -2.29338,-2.1786 -5.38938,-3.3826 -9.288,-3.612 -2.63737,-0.1146 -5.16004,0.0574 -7.568,0.516 -2.29337,0.45873 -4.4147,1.03206 -6.364,1.72 -1.83469,0.68806 -3.38269,1.37606 -4.644,2.064 -1.14669,0.68806 -1.94936,1.26139 -2.408,1.72 l 0,49.02"
         id="path3054"
         style="letter-spacing:-1.70623696" />
      <path
         d="m 245.8067,718.2223 c 2.40797,-0.34403 4.98797,-0.74537 7.74,-1.204 2.86663,-0.4587 5.61862,-1.1467 8.256,-2.064 2.63729,-0.8027 5.04528,-1.94936 7.224,-3.44 2.29328,-1.49069 4.07061,-3.44002 5.332,-5.848 0.68794,-1.14669 1.20394,-2.58002 1.548,-4.3 0.34394,-1.72002 0.57327,-3.49735 0.688,-5.332 0.22927,-1.83468 0.34394,-3.66934 0.344,-5.504 0.11461,-1.72001 0.17194,-3.268 0.172,-4.644 -6e-5,-0.91734 -6e-5,-1.43333 0,-1.548 0.11461,-0.22933 0.11461,-0.80267 0,-1.72 -1.94939,0.91733 -5.10272,2.12133 -9.46,3.612 -4.35738,1.49066 -10.20537,2.23599 -17.544,2.236 -2.8667,-1e-5 -5.73336,-0.45867 -8.6,-1.376 -2.86669,-1.032 -5.50402,-2.46533 -7.912,-4.3 -2.29335,-1.94933 -4.18535,-4.3 -5.676,-7.052 -1.37601,-2.75199 -2.06401,-5.84799 -2.064,-9.288 l 0,-52.288 12.728,-4.3 0,52.804 0,-0.172 c -2e-5,5.84801 1.83464,10.26268 5.504,13.244 3.6693,2.86667 8.3133,4.24267 13.932,4.128 3.32529,-0.11466 6.70795,-0.91733 10.148,-2.408 3.43995,-1.49066 6.19194,-2.92399 8.256,-4.3 l 0,-61.404 12.556,0 0,68.284 c -7e-5,2.17867 -0.0574,4.58667 -0.172,7.224 -0.11474,2.63733 -0.34407,5.27466 -0.688,7.912 -0.2294,2.63732 -0.63074,5.15998 -1.204,7.568 -0.45874,2.40798 -1.14674,4.47198 -2.064,6.192 -1.6054,2.9813 -3.8414,5.5613 -6.708,7.74 -2.86672,2.17863 -6.02006,3.95596 -9.46,5.332 -3.44005,1.37596 -6.99471,2.35063 -10.664,2.924 -3.5547,0.68796 -6.93737,1.08929 -10.148,1.204 l -2.064,-7.912"
         id="path3056"
         style="letter-spacing:-1.70623696" />
      <path
         d="m 336.25752,688.1223 c -8.37069,0.80266 -14.90669,-0.516 -19.608,-3.956 -4.70135,-3.44 -7.05201,-8.42799 -7.052,-14.964 l 0,-49.364 -8.6,0 0,-8.084 8.6,0 0,-20.984 12.556,-4.472 0,25.456 14.104,0 0,8.084 -14.104,0 0,49.02 c -2e-5,5.04534 1.26131,8.37067 3.784,9.976 2.52264,1.60534 5.96264,2.52267 10.32,2.752 l 0,6.536"
         id="path3058"
         style="letter-spacing:-1.70623696" />
      <path
         d="m 400.32247,687.0903 0,-48.504 c -5e-5,-2.17862 -0.28672,-4.35728 -0.86,-6.536 -0.57339,-2.29328 -1.43339,-4.29994 -2.58,-6.02 -1.14672,-1.83461 -2.63738,-3.32527 -4.472,-4.472 -1.83471,-1.1466 -4.01338,-1.71994 -6.536,-1.72 -4.01337,6e-5 -7.79737,0.97473 -11.352,2.924 -3.55469,1.83473 -6.93736,3.89872 -10.148,6.192 l 0,58.136 -12.556,0 0,-115.928 12.556,-3.956 0,52.804 c 3.78398,-2.75193 7.79731,-4.87327 12.04,-6.364 4.3573,-1.60526 9.11596,-2.40793 14.276,-2.408 3.32528,7e-5 6.36395,0.63074 9.116,1.892 2.75194,1.14674 5.10261,2.8094 7.052,4.988 1.94927,2.06406 3.43994,4.52939 4.472,7.396 1.1466,2.86672 1.71993,5.90539 1.72,9.116 l 0,52.46 -12.728,0"
         id="path3060"
         style="letter-spacing:-1.70623696" />
      <path
         d="m 459.4693,688.6383 c -5.84803,-10e-6 -10.89336,-1.14667 -15.136,-3.44 -4.24269,-2.29333 -7.79735,-5.332 -10.664,-9.116 -2.86668,-3.78399 -4.98801,-8.08398 -6.364,-12.9 -1.37601,-4.93064 -2.06401,-9.97597 -2.064,-15.136 -1e-5,-5.04529 0.74533,-9.86129 2.236,-14.448 1.60532,-4.70128 3.89865,-8.77194 6.88,-12.212 2.98131,-3.5546 6.59331,-6.36393 10.836,-8.428 4.24264,-2.06393 9.05863,-3.09593 14.448,-3.096 5.38929,7e-5 10.20528,1.03207 14.448,3.096 4.35727,2.06407 8.0266,4.8734 11.008,8.428 2.98126,3.44006 5.21726,7.51072 6.708,12.212 1.60526,4.58671 2.40792,9.40271 2.408,14.448 -8e-5,5.16003 -0.68807,10.20536 -2.064,15.136 -1.37607,4.81602 -3.55474,9.11601 -6.536,12.9 -2.86673,3.784 -6.47873,6.82267 -10.836,9.116 -4.35738,2.29333 -9.46005,3.43999 -15.308,3.44 m -20.468,-40.592 c -2e-5,3.66936 0.28665,7.45336 0.86,11.352 0.68798,3.78402 1.83464,7.28135 3.44,10.492 1.60531,3.21068 3.72664,5.84801 6.364,7.912 2.75197,2.064 6.13463,3.096 10.148,3.096 4.35729,0 7.85462,-1.032 10.492,-3.096 2.75195,-2.17866 4.87328,-4.81599 6.364,-7.912 1.49061,-3.21065 2.46527,-6.70798 2.924,-10.492 0.57327,-3.89864 0.85994,-7.68264 0.86,-11.352 -6e-5,-3.43996 -0.34406,-6.82262 -1.032,-10.148 -0.68806,-3.43995 -1.83473,-6.53595 -3.44,-9.288 -1.60539,-2.86661 -3.78405,-5.21727 -6.536,-7.052 -2.63738,-1.8346 -5.96271,-2.8666 -9.976,-3.096 -4.35737,0.2294 -7.8547,1.2614 -10.492,3.096 -2.63736,1.83473 -4.75869,4.18539 -6.364,7.052 -1.49069,2.75205 -2.52269,5.84805 -3.096,9.288 -0.45869,3.32538 -0.68802,6.70804 -0.688,10.148 l 0.172,0"
         id="path3062"
         style="letter-spacing:-1.70623696" />
      <path
         d="m 554.41631,687.0903 0,-51.256 c -6e-5,-5.84795 -1.72005,-10.26261 -5.16,-13.244 -3.44005,-3.09594 -7.91204,-4.5866 -13.416,-4.472 -3.32537,0.11473 -6.53603,0.80273 -9.632,2.064 -2.98136,1.14673 -5.44669,2.40806 -7.396,3.784 l 0,63.124 -12.556,0 0,-64.672 c 3.21066,-2.29327 6.30665,-4.29993 9.288,-6.02 3.09598,-1.8346 6.65064,-3.26793 10.664,-4.3 3.09597,-0.91726 6.65063,-1.60526 10.664,-2.064 4.12796,-0.57326 8.42795,-0.34393 12.9,0.688 4.58661,1.03207 8.59994,3.1534 12.04,6.364 3.43993,3.09606 5.15993,7.22406 5.16,12.384 l 0,57.62 -12.556,0"
         id="path3064"
         style="letter-spacing:-1.70623696" />
    </g>
    <flowRoot
       transform="matrix(0.42336095,0,0,0.42336095,-21.636519,679.27015)"
       id="flowRoot3041"
       xml:space="preserve"
       style="font-size:40px;font-style:normal;font-weight:normal;line-height:125%;letter-spacing:0px;word-spacing:0px;fill:#000000;fill-opacity:1;stroke:none;font-family:flux;-inkscape-font-specification:flux"><flowRegion
         id="flowRegion3043"><rect
           width="618"
           height="213"
           x="140"
           y="591.36218"
           id="rect3045" /></flowRegion><flowPara
         id="flowPara3047" /></flowRoot>    <g
       id="text3049"
       style="font-size:16.93443871px;font-style:normal;font-weight:normal;line-height:125%;letter-spacing:0px;word-spacing:0px;fill:#000000;fill-opacity:1;stroke:none;font-family:flux;-inkscape-font-specification:flux">
      <path
         d="m 56.785168,1011.0744 c -2.670012,-0.097 -4.951643,-0.4369 -6.844899,-1.0194 -1.844735,-0.5826 -3.373913,-1.2137 -4.587539,-1.8933 -1.165095,-0.6796 -2.014639,-1.2864 -2.548632,-1.8204 -0.534004,-0.534 -0.801004,-0.801 -0.800999,-0.801 l 0,-44.05498 5.170083,-1.74764 0,20.89879 c 1.504896,-0.92233 3.034074,-1.62624 4.587539,-2.11172 1.553437,-0.53397 3.228251,-0.7767 5.024447,-0.72818 2.184521,0.0971 4.077789,0.60685 5.67981,1.52918 1.601972,0.87384 2.936968,2.0632 4.004995,3.56808 1.067968,1.45639 1.844694,3.1312 2.330178,5.02445 0.533968,1.89329 0.800967,3.85938 0.800999,5.89826 -3.2e-5,2.3302 -0.291304,4.56328 -0.873817,6.69926 -0.582575,2.0875 -1.407846,3.9322 -2.475815,5.5342 -1.068026,1.602 -2.403022,2.8642 -4.004994,3.7865 -1.602021,0.9224 -3.422471,1.3593 -5.461356,1.3107 l 0,-0.073 M 47.246,1004.8849 c 0.145627,0.1942 0.485444,0.4612 1.019453,0.801 0.533988,0.2913 1.165078,0.5825 1.89327,0.8738 0.776713,0.2913 1.650529,0.534 2.621451,0.7282 1.019437,0.1942 2.087434,0.267 3.203996,0.2184 1.553432,-0.048 2.815611,-0.534 3.78654,-1.4563 1.019429,-0.9224 1.820428,-2.0632 2.402996,-3.4225 0.58252,-1.3592 0.970882,-2.79132 1.165089,-4.29624 0.242701,-1.55344 0.364065,-2.98552 0.364091,-4.29626 -2.6e-5,-1.35926 -0.09712,-2.7428 -0.291273,-4.15063 -0.145661,-1.45634 -0.509751,-2.79134 -1.092271,-4.005 -0.582568,-1.21361 -1.407839,-2.23306 -2.475814,-3.05836 -1.019475,-0.82524 -2.403017,-1.28642 -4.150631,-1.38354 -1.650559,-0.0971 -3.276828,0.14566 -4.878811,0.72818 -1.553464,0.58257 -2.767097,1.14084 -3.640904,1.67482 l 0.07282,21.04443"
         id="path3072"
         style="letter-spacing:0.43026048" />
      <path
         d="m 88.873086,1011.1472 c -2.475829,0 -4.611824,-0.4854 -6.407991,-1.4563 -1.796188,-0.9709 -3.301093,-2.2574 -4.514721,-3.8594 -1.213639,-1.602 -2.111728,-3.4224 -2.694268,-5.4613 -0.582548,-2.08747 -0.87382,-4.22346 -0.873817,-6.40802 -3e-6,-2.13598 0.315542,-4.17488 0.946635,-6.11672 0.679631,-1.99034 1.650538,-3.7137 2.912723,-5.17008 1.262172,-1.50488 2.79135,-2.69424 4.587539,-3.56809 1.796166,-0.87378 3.83507,-1.31069 6.116718,-1.31072 2.281614,3e-5 4.320518,0.43694 6.116718,1.31072 1.8447,0.87385 3.398151,2.06321 4.660357,3.56809 1.262151,1.45638 2.208781,3.17974 2.839901,5.17008 0.67961,1.94184 1.01943,3.98074 1.01946,6.11672 -3e-5,2.18456 -0.29131,4.32055 -0.87382,6.40802 -0.58257,2.0389 -1.50494,3.8593 -2.767086,5.4613 -1.213662,1.602 -2.74284,2.8885 -4.587539,3.8594 -1.844746,0.9709 -4.005014,1.4563 -6.480809,1.4563 m -8.665351,-17.18502 c -8e-6,1.55347 0.121355,3.15546 0.36409,4.80599 0.291264,1.60203 0.776717,3.08263 1.456362,4.44193 0.679625,1.3593 1.577713,2.4758 2.694269,3.3496 1.165075,0.8738 2.597162,1.3107 4.296266,1.3107 1.844706,0 3.325339,-0.4369 4.441903,-1.3107 1.165067,-0.9224 2.063155,-2.0389 2.694269,-3.3496 0.631065,-1.3593 1.0437,-2.8399 1.237907,-4.44193 0.242701,-1.65053 0.364065,-3.25252 0.36409,-4.80599 -2.5e-5,-1.45634 -0.145661,-2.88843 -0.436908,-4.29627 -0.291297,-1.45634 -0.776751,-2.76706 -1.456362,-3.93217 -0.679658,-1.21361 -1.602019,-2.20879 -2.767087,-2.98555 -1.116563,-0.77669 -2.524378,-1.2136 -4.223448,-1.31072 -1.84474,0.0971 -3.325372,0.53403 -4.441903,1.31072 -1.116555,0.77676 -2.014643,1.77194 -2.694269,2.98555 -0.631099,1.16511 -1.068007,2.47583 -1.310725,3.93217 -0.19419,1.40784 -0.29128,2.83993 -0.291272,4.29627 l 0.07282,0"
         id="path3074"
         style="letter-spacing:0.43026048" />
      <path
         d="m 110.99859,1004.7393 c 1.11653,0.8252 2.40299,1.5049 3.85935,2.0389 1.5049,0.534 2.96126,0.801 4.36909,0.801 0.8738,0 1.74762,-0.097 2.62145,-0.2913 0.92234,-0.1942 1.74762,-0.5097 2.47581,-0.9466 0.72817,-0.4855 1.31071,-1.068 1.74764,-1.7477 0.48543,-0.7282 0.70389,-1.602 0.65536,-2.6214 -2e-5,-0.7767 -0.16993,-1.4321 -0.50973,-1.9661 -0.33983,-0.53401 -0.77674,-0.97092 -1.31072,-1.31075 -0.48547,-0.38835 -1.04375,-0.70389 -1.67482,-0.94663 -0.6311,-0.29126 -1.23792,-0.55826 -1.82045,-0.801 -0.48547,-0.19417 -0.97092,-0.36408 -1.45636,-0.50973 -0.48547,-0.19416 -0.99519,-0.38835 -1.52918,-0.58254 -0.97092,-0.3398 -1.9661,-0.72817 -2.98554,-1.16509 -0.97092,-0.43689 -1.86901,-0.97089 -2.69427,-1.602 -0.87382,-0.67962 -1.602,-1.48061 -2.18454,-2.40299 -0.58255,-0.92235 -0.87382,-2.13598 -0.87382,-3.64091 0,-1.50488 0.31554,-2.83988 0.94664,-4.00499 0.63108,-1.21361 1.45635,-2.20879 2.47581,-2.98554 1.06799,-0.82524 2.25735,-1.43206 3.56809,-1.82046 1.35925,-0.43687 2.7428,-0.65533 4.15063,-0.65536 1.65052,3e-5 3.22825,0.24276 4.73317,0.72818 1.55343,0.48549 3.05834,1.14085 4.51472,1.96609 l -1.96609,3.13118 c -2.42728,-1.40779 -4.75746,-2.1117 -6.99053,-2.11173 -0.77674,3e-5 -1.55347,0.0971 -2.33018,0.29128 -0.72819,0.19421 -1.40783,0.50975 -2.03891,0.94663 -0.6311,0.38839 -1.14082,0.89812 -1.52918,1.52918 -0.38837,0.63112 -0.58255,1.38357 -0.58254,2.25736 -10e-6,0.92239 0.24272,1.65057 0.72818,2.18454 0.53399,0.53402 1.21362,0.9952 2.03891,1.38355 0.82526,0.38838 1.74762,0.80102 2.76708,1.2379 1.01944,0.38839 2.03889,0.77675 3.05836,1.16509 0.97089,0.38838 1.9418,0.80102 2.91273,1.23791 1.01943,0.38838 1.94179,0.92238 2.76708,1.602 0.8738,0.67965 1.60198,1.52919 2.18454,2.54863 0.58252,0.97092 0.8738,2.18455 0.87382,3.6409 -2e-5,1.6991 -0.38839,3.1797 -1.16509,4.4419 -0.7282,1.2622 -1.69911,2.3059 -2.91272,3.1312 -1.21366,0.8253 -2.57292,1.4321 -4.07781,1.8204 -1.50493,0.4369 -3.00983,0.6554 -4.51472,0.6554 -1.84474,0 -3.66519,-0.3155 -5.46136,-0.9466 -1.74764,-0.6797 -3.32536,-1.5535 -4.73317,-2.6215 l 1.89327,-3.0583"
         id="path3076"
         style="letter-spacing:0.43026048" />
      <path
         d="m 152.4641,1010.9288 c -3.54382,0.3398 -6.31091,-0.2185 -8.30126,-1.6748 -1.99036,-1.4564 -2.98554,-3.5681 -2.98554,-6.3352 l 0,-20.89879 -3.6409,0 0,-3.42245 3.6409,0 0,-8.8838 5.31572,-1.89327 0,10.77707 5.97108,0 0,3.42245 -5.97108,0 0,20.75319 c -1e-5,2.136 0.53399,3.5438 1.602,4.2234 1.06798,0.6797 2.52434,1.068 4.36908,1.1651 l 0,2.7671"
         id="path3078"
         style="letter-spacing:0.43026048" />
      <path
         d="m 172.51088,1011.1472 c -2.47583,0 -4.61183,-0.4854 -6.40799,-1.4563 -1.79619,-0.9709 -3.3011,-2.2574 -4.51472,-3.8594 -1.21364,-1.602 -2.11173,-3.4224 -2.69427,-5.4613 -0.58255,-2.08747 -0.87382,-4.22346 -0.87382,-6.40802 0,-2.13598 0.31554,-4.17488 0.94663,-6.11672 0.67964,-1.99034 1.65054,-3.7137 2.91273,-5.17008 1.26217,-1.50488 2.79135,-2.69424 4.58754,-3.56809 1.79616,-0.87378 3.83507,-1.31069 6.11671,-1.31072 2.28162,3e-5 4.32052,0.43694 6.11672,1.31072 1.8447,0.87385 3.39815,2.06321 4.66036,3.56809 1.26215,1.45638 2.20879,3.17974 2.83991,5.17008 0.6796,1.94184 1.01942,3.98074 1.01945,6.11672 -3e-5,2.18456 -0.29131,4.32055 -0.87382,6.40802 -0.58257,2.0389 -1.50493,3.8593 -2.76709,5.4613 -1.21366,1.602 -2.74283,2.8885 -4.58753,3.8594 -1.84475,0.9709 -4.00502,1.4563 -6.48081,1.4563 m -8.66535,-17.18502 c -1e-5,1.55347 0.12135,3.15546 0.36409,4.80599 0.29126,1.60203 0.77671,3.08263 1.45636,4.44193 0.67962,1.3593 1.57771,2.4758 2.69427,3.3496 1.16507,0.8738 2.59716,1.3107 4.29626,1.3107 1.84471,0 3.32534,-0.4369 4.44191,-1.3107 1.16506,-0.9224 2.06315,-2.0389 2.69426,-3.3496 0.63107,-1.3593 1.04371,-2.8399 1.23791,-4.44193 0.2427,-1.65053 0.36407,-3.25252 0.36409,-4.80599 -2e-5,-1.45634 -0.14566,-2.88843 -0.43691,-4.29627 -0.29129,-1.45634 -0.77675,-2.76706 -1.45636,-3.93217 -0.67966,-1.21361 -1.60202,-2.20879 -2.76708,-2.98555 -1.11657,-0.77669 -2.52438,-1.2136 -4.22345,-1.31072 -1.84474,0.0971 -3.32538,0.53403 -4.44191,1.31072 -1.11655,0.77676 -2.01464,1.77194 -2.69426,2.98555 -0.6311,1.16511 -1.06801,2.47583 -1.31073,3.93217 -0.19419,1.40784 -0.29128,2.83993 -0.29127,4.29627 l 0.0728,0"
         id="path3080"
         style="letter-spacing:0.43026048" />
      <path
         d="m 213.86034,1010.4919 0,-21.6998 c -2e-5,-2.4758 -0.7282,-4.34479 -2.18454,-5.607 -1.45638,-1.31069 -3.34965,-1.94178 -5.67981,-1.89327 -1.40783,0.0486 -2.7671,0.33985 -4.07781,0.87382 -1.26219,0.48548 -2.30592,1.01948 -3.13118,1.602 l 0,26.72425 -5.31572,0 0,-27.37961 c 1.35927,-0.97088 2.66999,-1.82043 3.93218,-2.54864 1.31072,-0.77669 2.81562,-1.38351 4.51472,-1.82045 1.31071,-0.38833 2.81562,-0.6796 4.51472,-0.87382 1.74762,-0.24269 3.56807,-0.1456 5.46136,0.29128 1.94179,0.43694 3.64087,1.33503 5.09726,2.69426 1.45634,1.31076 2.18452,3.05839 2.18454,5.24291 l 0,24.39407 -5.31572,0"
         id="path3082"
         style="letter-spacing:-0.12766449" />
    </g>
  </g>
  <g
     transform="translate(0,-782.35975)"
     id="layer5" />
</svg>
